<svg width="208" height="208" viewBox="0 0 208 208" fill="none" xmlns="http://www.w3.org/2000/svg">
<rect width="208" height="208" rx="24" fill="white"/>
<path fill-rule="evenodd" clip-rule="evenodd" d="M65.5746 65.5748L65.575 142.425H33.8152C27.5583 131.021 24 117.926 24 104C24 90.074 27.5583 76.979 33.8152 65.5748H65.5746ZM174.185 65.5748C180.442 76.979 184 90.074 184 104C184 117.926 180.442 131.021 174.185 142.425H142.425L142.425 65.5748L174.185 65.5748ZM142.425 174.185C131.021 180.442 117.926 184 104 184C90.0739 184 76.9789 180.442 65.5746 174.185L65.575 142.425H142.425L142.425 174.185Z" fill="#2A2A2A"/>
<path d="M142.425 33.8152C131.021 27.5582 117.926 24 104 24C90.0739 24 76.9789 27.5583 65.5746 33.8153V65.5748L142.425 65.5748V33.8152Z" fill="#2A2A2A"/>
<path d="M142.425 65.5748L65.5746 65.5748L65.575 142.425H142.425L142.425 65.5748Z" fill="white"/>
</svg>
