<svg width="22" height="23" viewBox="0 0 22 23" fill="none" xmlns="http://www.w3.org/2000/svg">
<path fill-rule="evenodd" clip-rule="evenodd" d="M5.71651 6.21653L5.71657 16.7835H1.3496C0.489263 15.2154 0 13.4148 0 11.5C0 9.58517 0.489263 7.78462 1.3496 6.21653H5.71651ZM20.6504 6.21653C21.5107 7.78462 22 9.58517 22 11.5C22 13.4148 21.5107 15.2154 20.6504 16.7835H16.2835L16.2834 6.21654L20.6504 6.21653ZM16.2834 21.1504C14.7154 22.0107 12.9148 22.5 11 22.5C9.08516 22.5 7.2846 22.0107 5.71651 21.1504L5.71657 16.7835H16.2835L16.2834 21.1504Z" fill="#18181B"/>
<path d="M16.2834 1.84958C14.7154 0.989259 12.9148 0.5 11 0.5C9.08516 0.5 7.2846 0.989268 5.71651 1.84961V6.21653L16.2834 6.21654V1.84958Z" fill="#18181B"/>
</svg>
